<svg version="1.2" xmlns="http://www.w3.org/2000/svg" fill="none" viewBox="0 0 184 333" width="184" height="333">
	<path id="&lt;Compound Path&gt;" opacity=".1" fill-rule="evenodd" class="s0" d="m179.3 151.7v126h-159.4c-8.6 0-15.6-7-15.6-15.6v-118.2c0-8.6 7-15.6 15.6-15.6h62.1l-0.4-0.4c-18.8-19.5-18.4-50.9 1-69.8 4.6-4.5 12.2-4.3 16.9 0.1l66.5 62.8c8.5 8 13.3 19.1 13.3 30.7zm-18.1 0c0-6.6-2.8-13-7.6-17.5l-62.2-58.6c-8.3 12-7.3 28.8 3.2 39.7l17.2 17.8c1.1 1.2 1.4 2.9 0.8 4.4l-2.8 6.7c-0.5 1.3-1.7 2.1-3.1 2.2l-4 0.1h-80.2v113h138.7z" fill="#fff"/>
</svg>