<svg version="1.2" xmlns="http://www.w3.org/2000/svg" opacity=".5" fill="#fff" viewBox="0 0 630 134" width="512" height="109">
	<path d="m531.88 0.05q0.52 0.52 1.04 1.04 34.96 32.36 69.93 64.71v-61.92h27.13v130.11c-23.66-21.92-47.31-44.19-71.31-66.1v61.58h-26.79zm-522.53 20.18c7.31-10.79 20.18-16.7 32.71-18.09 19.13-1.75 40 1.39 54.96 14.6-6.26 5.92-12.87 11.49-19.13 17.4-6.96-6.26-16.35-9.39-25.75-9.39-6.95-0.35-14.26 2.08-18.08 8-2.79 4.17-1.74 10.43 2.08 13.56 6.26 5.23 14.26 7.66 21.92 10.44 11.13 3.48 22.26 7.31 31.31 14.96 12.52 10.09 15.3 30.62 5.57 43.49-8.36 11.13-21.92 17.05-35.49 18.08-12.18 0.35-24.35 0-35.83-4.16-8.7-2.79-16.35-7.66-23.66-12.88 6.26-5.91 12.87-11.83 19.14-17.74 10.78 8.35 24.69 12.87 38.26 11.13 5.92-1.04 12.18-4.17 14.27-10.09 1.39-5.21-1.74-10.43-6.27-12.87-13.91-8-30.26-9.74-43.83-18.44-7.31-4.52-13.57-11.48-16-19.83-2.78-9.74-1.74-20.17 3.82-28.17z"/>
	<path d="m147.12 4.23h27.13v49.74h54.97v-49.74h27.48v125.93h-27.48v-55.66h-54.97v55.66h-27.13zm162.81 0h92.54v20.17h-65.75v29.92h64.7v19.83h-64.7v34.45h65.75v21.56h-92.54zm168.03 0v125.93h-27.14v-125.93z"/>
</svg>