<svg version="1.2" xmlns="http://www.w3.org/2000/svg" viewBox="0 0 512 512" width="512" height="512" opacity=".5" fill="#fff"><path d="m170.7 264.5h-17.1v-85.3c0-33.3 26.5-59.7 59.7-59.7h85.4c33.2 0 59.7 26.4 59.7 59.7v85.3h-17.1v-85.3c0-23.9-18.7-42.7-42.6-42.7h-9.4l-23.9 63.2c-2.6 2.5-6 5.1-9.4 5.1-3.4 0-6.8-2.6-7.7-5.1l-23.9-63.2h-11.1c-23.9 0-42.6 18.8-42.6 42.7zm99.8-128h-27.3l13.7 35.8zm-23.1 76.8h17.1v17.1h-17.1zm0 34.1h17.1v17.1h-17.1zm-42.7-179.2v-25.6c0-23.9 18.8-42.7 42.7-42.7h17.1c23.9 0 42.6 18.8 42.6 42.7v25.6c0 23.9-18.7 42.7-42.6 42.7h-17.1c-23.9 0-42.7-18.8-42.7-42.7zm17.1 0c0 14.5 11.1 25.6 25.6 25.6h17.1c14.5 0 25.6-11.1 25.6-25.6v-25.6c0-14.5-11.1-25.6-25.6-25.6h-17.1c-14.5 0-25.6 11.1-25.6 25.6zm-8.5 136.5v59.8h-17.1v-59.8zm102.4 0v59.8h-17.1v-59.8zm-110.9 281.6v25.6h-17.1v-25.6c0-23.9-18.7-42.6-42.6-42.6h-9.4l-23.9 63.1c-2.6 2.6-6 5.1-9.4 5.1-3.4 0-6.8-2.5-7.7-5.1l-23.9-63.1h-11.1c-23.8 0-42.6 18.7-42.6 42.6v25.6h-17.1v-25.6c0-33.2 26.5-59.7 59.7-59.7h85.4c33.3 0 59.7 26.5 59.7 59.7zm-87.9-42.6h-27.3l13.7 35.8zm-65.7-68.3v-25.6c0-23.8 18.7-42.6 42.6-42.6h17.1c23.9 0 42.7 18.8 42.7 42.6v25.6c0 23.9-18.8 42.7-42.7 42.7h-17.1c-23.9 0-42.6-18.8-42.6-42.7zm17 0c0 14.6 11.1 25.6 25.6 25.6h17.1c14.5 0 25.6-11 25.6-25.6v-25.6c0-14.5-11.1-25.6-25.6-25.6h-17.1c-14.5 0-25.6 11.1-25.6 25.6zm443.8 111v25.6h-17.1v-25.6c0-23.9-18.8-42.7-42.7-42.7h-9.4l-23.9 63.2c-2.5 2.5-5.9 5.1-9.3 5.1-3.5 0-6.9-2.6-7.7-5.1l-23.9-63.2h-11.1c-23.9 0-42.7 18.8-42.7 42.7v25.6h-17v-25.6c0-33.3 26.4-59.8 59.7-59.8h85.3c33.3 0 59.8 26.5 59.8 59.8zm-87.9-42.7h-27.3l13.6 35.9zm-65.7-93.9c0-23.9 18.8-42.7 42.7-42.7h17c23.9 0 42.7 18.8 42.7 42.7v25.6c0 23.9-18.8 42.7-42.7 42.7h-17c-23.9 0-42.7-18.8-42.7-42.7zm17.1 25.6c0 14.5 11.1 25.6 25.6 25.6h17c14.5 0 25.6-11.1 25.6-25.6v-25.6c0-14.5-11.1-25.6-25.6-25.6h-17c-14.5 0-25.6 11.1-25.6 25.6zm-204.8-8.5h76.8v-76.8h17v76.8h76.8v17h-170.6z"/></svg>